<svg xmlns="http://www.w3.org/2000/svg" width="24" height="24" viewBox="0 0 24 24"><path d="M21.312 12.644c-.972-1.189-3.646-4.212-4.596-5.284l-1.785 1.018 4.658 5.35c.622.692.458 1.704-.376 2.239-.773.497-5.341 3.376-6.386 4.035-.074-.721-.358-1.391-.826-1.948s-6.114-7.376-7.523-9.178c-.471-.601-.576-1.246-.297-1.817.268-.549.842-.918 1.431-.918.918 0 1.408.655 1.548 1.215.161.641-.035 1.231-.623 1.685l1.329 1.624 7.795-4.446c1.423-1.051 1.822-2.991.93-4.513-.616-1.053-1.757-1.706-2.975-1.706-1.188 0-.793-.016-9.566 4.475-1.233.591-2.05 1.787-2.05 3.202 0 .87.308 1.756.889 2.487 1.426 1.794 7.56 9.185 7.616 9.257.371.493.427 1.119.15 1.673-.277.555-.812.886-1.429.886-.919 0-1.409-.655-1.549-1.216-.157-.629.011-1.208.604-1.654l-1.277-1.545c-.823.665-1.278 1.496-1.377 2.442-.233 2.205 1.525 3.993 3.614 3.993.595 0 1.311-.177 1.84-.51l9.427-5.946c.957-.664 1.492-1.781 1.492-2.897 0-.744-.24-1.454-.688-2.003zm-8.293-10.492c.188-.087.399-.134.609-.134.533 0 .998.281 1.244.752.312.596.225 1.469-.547 1.912l-5.099 2.888c-.05-1.089-.578-2.081-1.454-2.732l5.247-2.686z"/></svg>