<svg clip-rule="evenodd" fill-rule="evenodd" stroke-linejoin="round" stroke-miterlimit="2" viewBox="0 0 24 24" xmlns="http://www.w3.org/2000/svg"><path d="m6 17.75c0-.414.336-.75.75-.75h10.5c.414 0 .75.336.75.75s-.336.75-.75.75h-10.5c-.414 0-.75-.336-.75-.75zm-4-4c0-.414.336-.75.75-.75h18.5c.414 0 .75.336.75.75s-.336.75-.75.75h-18.5c-.414 0-.75-.336-.75-.75zm0-4c0-.414.336-.75.75-.75h18.5c.414 0 .75.336.75.75s-.336.75-.75.75h-18.5c-.414 0-.75-.336-.75-.75zm4-4c0-.414.336-.75.75-.75h10.5c.414 0 .75.336.75.75s-.336.75-.75.75h-10.5c-.414 0-.75-.336-.75-.75z" fill-rule="nonzero"/></svg>